<svg width="32" height="32" viewBox="0 0 32 32" fill="none" xmlns="http://www.w3.org/2000/svg">
<g clip-path="url(#clip0_4_306)">
<g clip-path="url(#clip1_4_306)">
<mask id="mask0_4_306" style="mask-type:luminance" maskUnits="userSpaceOnUse" x="0" y="0" width="32" height="32">
<path d="M0 0H32V32H0V0Z" fill="white"/>
</mask>
<g mask="url(#mask0_4_306)">
<path d="M23.8166 28.5761C20.1762 39.4752 10.4661 42.8367 5.33215 29.3027C4.6239 27.4422 6.46977 26.7523 7.76151 25.9303C8.64591 25.3688 9.11197 24.8844 9.05692 24.3816C8.80004 22.0183 7.70279 15.4349 7.70279 15.4349L7.5927 15.222C7.48995 15.1156 7.61839 15.1633 7.51197 15.2661C7.40188 15.3761 7.14867 16.5211 6.15417 16.5211C5.25509 16.5211 4.34867 16.1211 3.91564 13.3541C3.7505 12.3523 3.83857 9.72477 4.95417 9.2477C5.41289 9.05321 5.8349 8.98348 6.24591 9.21835C6.66059 9.45321 5.76885 8.41101 10.356 4.59449C13.3358 2.10642 18.0441 1.74312 19.945 2.16514C21.8459 2.58715 23.7432 3.51559 24.5835 5.48624C25.6037 7.87156 23.6331 9.68073 24.0698 15.1193C23.989 17.0862 24.0991 21.4018 18.6899 22.8477C17.6624 23.1229 17.9817 24.6239 19.523 24.9908C21.9817 25.7615 23.8166 27.644 23.8166 28.5835V28.5761Z" fill="white"/>
<path fill-rule="evenodd" clip-rule="evenodd" d="M23.8165 11.6404L23.8202 11.589C23.9707 10.2532 24.1211 8.9578 24.8147 7.79449C25.0532 7.95596 25.0239 8.16147 24.9505 8.35229C24.2202 10.2312 24.2899 12.1835 24.356 14.1358L24.3707 14.6495C24.4477 17.0862 23.8386 19.3028 22.2165 21.1633C21.6514 21.8092 20.9028 22.2569 20.1432 22.6422C19.3578 23.0459 19.1927 23.3798 19.4386 24.2422L19.4679 24.3376C19.5193 24.4807 19.5707 24.6275 19.4312 24.7706C19.2661 24.9394 19.0826 24.8917 18.8881 24.8367L18.8661 24.833C17.0466 24.3236 15.3405 23.473 13.8386 22.3266C13.6184 22.1651 13.4422 21.9486 13.2698 21.7358L13.2588 21.7211C13.167 21.611 13.1487 21.4349 13.2771 21.3394C13.3982 21.2477 13.4899 21.3211 13.5964 21.4055L13.6331 21.4385C14.4344 22.0887 15.4069 22.4928 16.4331 22.6018C16.9248 22.6532 17.4092 22.6349 17.901 22.6165C18.1725 22.6055 18.4441 22.5945 18.7193 22.5982C19.0936 22.5982 19.4055 22.4257 19.6991 22.2605L19.8019 22.2018C20.8221 21.633 21.7945 20.9982 22.4514 19.9743C23.0422 19.0569 23.4019 18.0587 23.611 17.0055C23.8753 15.6807 23.8532 14.3376 23.8312 12.9761C23.8202 12.5358 23.8129 12.0881 23.8129 11.6404H23.8165ZM5.34316 8.87339C6.14682 8.81101 6.59086 9.2844 6.96884 9.83853C7.41683 10.5156 7.69848 11.2889 7.79086 12.0954C7.80921 12.2312 7.82756 12.3743 7.74682 12.5101C7.58169 12.5321 7.56701 12.4 7.56334 12.3046C7.54499 11.545 7.20738 10.8844 6.86976 10.2459C6.62756 9.78716 6.27527 9.34312 5.71747 9.23303C5.08627 9.10459 4.50646 9.67339 4.22022 10.4147C3.68811 11.7945 3.77985 13.1523 4.2716 14.4881C4.48444 15.0716 4.75233 15.6661 5.29178 16.0734C5.8349 16.4881 6.49178 16.4147 6.89178 15.8642L6.96517 15.7725C7.03857 15.6771 7.11196 15.5853 7.14866 15.4789C7.22572 15.2661 7.34682 15.0679 7.56334 15.0972C7.81288 15.1339 7.85692 15.4018 7.8826 15.611C8.11026 17.5334 8.37943 19.4507 8.68994 21.3615L8.90646 22.7853C9.00187 23.4128 9.11196 24.3156 9.03857 24.6972C9.03383 24.724 9.03016 24.7509 9.02756 24.778C9.01288 24.8807 9.00554 24.9615 8.87343 24.9798C8.69361 25.0092 8.61655 24.9064 8.59086 24.745C8.50646 24.1211 8.48077 23.8789 8.44407 22.9248C8.41104 22 8.23857 21.0899 8.06242 20.1761L7.87893 19.1853C7.68811 18.055 7.50095 16.9101 7.4826 15.6257L7.40921 15.7358C7.13031 16.1505 6.90646 16.4881 6.51013 16.6165C5.90646 16.8478 5.22253 16.6624 4.81838 16.1578C4.30128 15.5737 3.93802 14.8699 3.7615 14.1101C3.45325 12.8624 3.3982 11.6477 3.79453 10.4183C3.98536 9.82752 4.66426 8.77798 5.34316 8.87706V8.87339ZM6.61288 13.5523C6.77435 13.6697 6.92114 13.7725 7.05325 13.3541C7.01288 11.8055 6.5138 10.8147 5.73949 10.7743C6.15049 11.3101 6.54682 11.8312 6.58352 12.5541C6.43082 12.4761 6.29685 12.366 6.19086 12.2312C6.11747 12.1505 6.04407 12.0697 5.95233 12.011L5.84224 11.9229C5.66609 11.7908 5.48627 11.6514 5.18903 11.7578C5.32848 11.9706 5.5193 12.1248 5.7138 12.2716C5.93398 12.444 6.15416 12.6128 6.28627 12.8771C5.89728 13.1596 5.72848 13.5266 5.93031 13.9743C6.10646 14.3596 6.36701 14.6789 6.88077 14.7009C6.85875 14.4697 6.70829 14.3009 6.55783 14.1358C6.37435 13.9376 6.20187 13.7468 6.2826 13.4532C6.40004 13.3982 6.51013 13.4789 6.61288 13.5523Z" fill="black"/>
<path d="M39.9266 48.0367L-10.1651 47.9156C-6.78528 49.1229 -9.75042 44.356 -8.54308 40.9761C-7.03849 36.7486 -4.62015 32.4624 -3.9706 31.9449C-3.2073 31.3284 -4.39629 31.2771 -3.84583 30.433C-2.62015 28.5578 1.53031 26.855 2.73398 26.2459C4.88077 25.1523 8.76334 24.4917 8.76334 24.4917L9.76151 26.4587C9.66976 29.2037 12.0881 27.2624 14.8331 27.3541C16.3156 27.4018 19.7505 26.2716 19.7505 26.2716L19.3358 24.1468C17.4716 27.2147 25.5377 25.4238 28.6055 27.2881C30.3743 28.3633 32.5762 30.0404 32.6312 31.0018C32.7083 32.4624 32.6936 32.3486 33.512 32.9064C35.4679 34.2349 37.123 37.3835 37.945 39.9229C38.5872 41.9119 39.9266 48.0367 39.9266 48.0367Z" fill="white"/>
<path fill-rule="evenodd" clip-rule="evenodd" d="M1.55233 43.4642C2.30095 44.9541 3.04591 46.4477 3.59637 48.0367C3.83857 48.0367 4.03673 48.0367 4.24224 48L4.08811 47.5963C3.86059 46.9945 3.63673 46.411 3.37251 45.8422C2.95996 44.9746 2.5416 44.1097 2.11747 43.2477C1.77618 42.5431 1.43123 41.8422 1.09728 41.1376C0.954165 40.844 0.8771 40.5174 1.04958 40.1908C1.29545 39.7211 1.50829 39.2367 1.72114 38.7523L1.91196 38.3193C2.31563 37.4239 2.80737 36.5725 3.30279 35.7174C3.69754 35.0569 4.07082 34.3838 4.42205 33.6991C4.71563 33.1009 4.62389 32.8 3.97802 32.5982C3.85433 32.556 3.72632 32.5276 3.59637 32.5138C3.28077 32.4881 2.96517 32.4697 2.64958 32.4514C1.68444 32.3963 0.715632 32.3413 -0.227487 32.055C-0.517395 31.967 -0.818313 31.9193 -1.1229 31.8716C-1.41648 31.8238 -1.71006 31.7761 -1.99262 31.6917L-2.16143 31.644C-2.70088 31.4899 -3.25868 31.3284 -3.67703 30.8991L-3.61097 30.811C-3.57428 30.7633 -3.54492 30.7193 -3.51189 30.6826C-2.57978 29.6294 -1.35776 28.9578 -0.135744 28.2936L0.598201 27.8899C1.33582 27.4679 2.11013 27.1046 2.88077 26.7376C3.17435 26.6018 3.46426 26.4661 3.75049 26.3229C4.4698 25.9573 5.21863 25.6528 5.98903 25.4128C6.37802 25.2991 6.77068 25.2073 7.16334 25.1193C7.44958 25.0495 7.73582 24.9835 8.01838 24.9101C8.75233 24.7156 8.88811 24.7633 9.07893 25.4862L9.40921 26.7413C9.7615 28.0404 10.1101 29.3394 10.389 30.6532C10.7083 32.1468 10.9175 33.6624 11.0202 35.1853C11.0753 36.0514 11.1707 36.9174 11.2698 37.7798C11.4019 38.9615 11.534 40.1394 11.5633 41.3284C11.5817 42.0917 11.556 42.855 11.5303 43.6183L11.501 44.6826C11.4835 45.1759 11.4431 45.6682 11.3799 46.1578C11.3065 46.7816 11.2367 47.4055 11.2624 48.0367C11.5046 48.0367 11.7065 48.0367 11.912 47.9927L11.934 47.3982C11.9413 47.0238 11.9523 46.6642 11.9927 46.3119C12.1982 44.4404 12.1688 42.5688 12.1285 40.6972C12.0991 39.4642 11.9964 38.2385 11.8202 37.0202C11.7285 36.3743 11.6918 35.7284 11.6551 35.0826C11.6074 34.2385 11.5597 33.3908 11.3835 32.5505C11.2983 32.133 11.2176 31.7146 11.1413 31.2954C11.0019 30.5358 10.8588 29.7761 10.6643 29.0275C10.6569 28.9908 10.6422 28.9541 10.6276 28.9174C10.5835 28.8073 10.5395 28.6972 10.6496 28.5908C10.7964 28.4514 10.9835 28.4917 11.1633 28.5394C12.6679 28.9431 14.1982 29.0495 15.7542 28.9284C16.9101 28.8404 18.0514 28.7156 19.112 28.2128C19.4276 28.0661 19.6771 28.1578 19.7468 28.5431C19.7835 28.7486 19.8092 28.9541 19.8349 29.1633C19.8716 29.4532 19.912 29.7431 19.9743 30.022C20.2606 31.2991 20.3377 32.5908 20.4147 33.8826C20.4514 34.4734 20.4881 35.0642 20.5395 35.655C20.5835 36.0954 20.6129 36.5431 20.6422 36.9872C20.6789 37.5229 20.7156 38.055 20.7743 38.5908C21.0055 40.8183 20.9468 43.0495 20.8734 45.2807L20.8477 46.0147C20.8221 46.6899 20.7964 47.3615 20.7964 48.033C21.0055 48.033 21.1743 48.033 21.3578 47.9963L21.3909 47.8018C21.4276 47.5633 21.4606 47.3431 21.4643 47.1266L21.4753 45.4862C21.4753 44.4587 21.4826 43.4238 21.5303 42.3963C21.5927 41.0385 21.556 39.6807 21.4165 38.3229C21.3175 37.3615 21.2514 36.4 21.1854 35.4349C21.123 34.5505 21.0606 33.6624 20.9762 32.778C20.811 31.0899 20.5909 29.4018 20.2276 27.7394C20.047 26.9015 19.8782 26.061 19.7211 25.2183C19.7028 25.1303 19.7065 25.0349 19.7065 24.9468V24.8C19.6991 24.5651 19.8055 24.4881 20.0404 24.5358C21.0192 24.7041 21.9863 24.9345 22.9358 25.2257C23.7065 25.4789 24.4588 25.7761 25.211 26.0697L26.0184 26.3853C27.9165 27.0934 29.6662 28.1487 31.178 29.4972C31.6545 29.9159 32.0468 30.4216 32.334 30.9872C32.5028 31.3284 32.323 31.6917 31.9854 31.7578L31.6477 31.8275C30.8184 31.989 29.989 32.1578 29.178 32.4037C27.927 32.777 26.7698 33.4125 25.7835 34.2679C25.5046 34.5101 25.4606 34.8073 25.6147 35.1193C25.7615 35.4128 25.923 35.7064 26.0991 35.9853C26.3113 36.3237 26.5266 36.6601 26.745 36.9945C27.2918 37.8312 27.8349 38.6679 28.2789 39.5633C28.4 39.8018 28.4257 40.0404 28.2716 40.2239C27.9266 40.6202 27.6551 41.0642 27.3835 41.5083C27.1903 41.8313 26.9834 42.146 26.7633 42.4514C25.9927 43.4862 25.3321 44.5982 24.8037 45.7651C24.6753 46.055 24.5615 46.3523 24.4514 46.6532C24.2753 47.1303 24.0954 47.6 23.8459 48.0367C24.1211 48.0367 24.356 48.0367 24.5982 48C24.9654 46.8054 25.4755 45.6595 26.1175 44.5872C26.9615 43.2257 27.8532 41.8972 28.7597 40.5761C28.9909 40.2459 29.1156 39.8862 28.9028 39.4385C28.6092 38.822 28.2606 38.2385 27.912 37.6587L27.8973 37.633C27.3909 36.789 26.8477 35.9596 26.301 35.1376C26.1285 34.8734 26.2202 34.6972 26.411 34.5211C26.8651 34.1161 27.3804 33.7854 27.9376 33.5413C29.1279 32.9899 30.3949 32.6224 31.6954 32.4514C32.1652 32.389 32.5101 32.4771 32.8698 32.7303C34.1321 33.622 35.2294 34.6018 35.8863 36.044L36.2019 36.7303C36.6888 37.7347 37.1236 38.7636 37.5046 39.8128C37.9487 41.1083 38.356 42.4147 38.6716 43.7541C38.7854 44.2422 38.8918 44.7339 39.0019 45.222C39.2147 46.1615 39.4276 47.1009 39.6698 48.0367C39.8459 48.0367 39.9817 48.0367 40.1065 48C39.9234 47.2103 39.7667 46.4148 39.6367 45.6147C39.4679 44.6238 39.2954 43.633 39.0202 42.6642L38.9652 42.4697C38.723 41.6183 38.4808 40.767 38.1945 39.9376C37.6727 38.4085 37.0373 36.9206 36.2936 35.4862C35.6294 34.2128 34.6202 33.233 33.4532 32.3706C33.3982 32.3339 33.3358 32.3009 33.2698 32.2679C33.0496 32.1541 32.8037 32.0294 32.9138 31.6514C33.1046 31.0055 32.9799 30.4147 32.4147 29.9523C32.2863 29.8422 32.1762 29.7211 32.0624 29.5963L31.956 29.4752C30.4404 27.8128 28.4514 26.8147 26.4037 25.9156C25.0716 25.3321 23.6771 24.8844 22.2863 24.4477C21.4206 24.1639 20.5256 23.9793 19.6184 23.8972C19.1487 23.8605 18.9578 24.0734 19.0129 24.5138C19.0276 24.6239 19.0422 24.7339 19.0496 24.844C19.0789 25.0899 19.1046 25.3394 19.1633 25.578C19.2624 25.989 19.0459 26.2092 18.723 26.356C17.926 26.7363 17.067 26.97 16.1872 27.0459C14.2532 27.167 12.334 27.0716 10.4808 26.4257C10.1725 26.3156 9.99637 26.1541 9.86426 25.8862C9.77618 25.7027 9.69545 25.5119 9.61471 25.3248C9.49361 25.0385 9.36884 24.7523 9.21104 24.4807C9.01655 24.1284 8.78169 24.0477 8.42205 24.1651C8.19086 24.2385 7.956 24.3009 7.71747 24.3486C6.41838 24.6385 5.13031 24.9541 3.92664 25.5413C2.24024 26.3467 0.580633 27.2071 -1.04951 28.1211C-2.15042 28.7523 -3.244 29.3982 -4.06969 30.3706C-4.29721 30.6385 -4.34492 30.9027 -4.1651 31.1853C-4.0073 31.4239 -4.01831 31.6073 -4.2385 31.8092C-4.56342 32.137 -4.84241 32.5073 -5.06785 32.9101C-5.13391 33.0128 -5.19629 33.1193 -5.26602 33.222C-6.03299 34.3963 -6.71556 35.6147 -7.31373 36.8734C-7.75472 37.8224 -8.14908 38.7923 -8.49538 39.7798L-8.53207 39.8826C-8.81831 40.6899 -9.10455 41.4936 -9.31006 42.3229C-9.37244 42.5872 -9.44584 42.8514 -9.51556 43.1119C-9.63585 43.5402 -9.74233 43.9722 -9.83483 44.4073C-10.0807 45.6147 -10.2825 46.8294 -10.4587 48.0367C-10.2165 48.0367 -10.0146 48.0367 -9.79813 48L-9.51189 46.3119L-9.2807 44.9688C-8.87703 42.6569 -8.08804 40.455 -7.19629 38.2899C-6.30747 36.2052 -5.19123 34.225 -3.86785 32.3853C-3.72106 32.1798 -3.54125 32.1211 -3.29538 32.0991C-2.69721 32.044 -2.13941 32.2055 -1.58529 32.3633C-1.3017 32.4511 -1.01387 32.5246 -0.722899 32.5835L-0.150423 32.6862C0.840403 32.8697 1.82389 33.0532 2.8404 33.1046C2.94316 33.1119 3.04958 33.1119 3.15967 33.1119C3.45325 33.1119 3.7615 33.1119 4.08077 33.222L3.77985 33.7248L2.91013 35.1413C2.2154 36.2641 1.60456 37.4367 1.0826 38.6495C0.866091 39.1339 0.653247 39.6147 0.418385 40.0844C0.278935 40.3633 0.234898 40.6202 0.352329 40.8917L0.400036 41.0018C0.620219 41.5156 0.836733 42.022 1.0826 42.5211L1.556 43.4679L1.55233 43.4642ZM18.9835 26.8771C19.167 26.7816 19.3652 26.6789 19.3945 27.0128C19.4606 27.4018 19.2 27.5339 18.9762 27.6477L18.9101 27.6844C18.2679 28.022 17.5597 28.1982 16.8331 28.2789C15.0648 28.5054 13.2711 28.4335 11.5266 28.0661C11.178 27.9853 10.8404 27.8605 10.5248 27.6991C10.3193 27.6 10.2312 27.4495 10.2789 27.2404C10.3303 27.0202 10.4771 27.0569 10.6276 27.0936C10.6532 27.1046 10.6826 27.1119 10.712 27.1156L11.4202 27.255C12.0257 27.3761 12.6312 27.4972 13.2441 27.5853C14.5063 27.7772 15.7927 27.7411 17.0422 27.4789L17.0753 27.4752C17.7358 27.3358 18.389 27.2 18.9835 26.8807V26.8771Z" fill="black"/>
<path d="M4.25323 4.86239C4.79478 3.80033 5.41807 2.78197 6.11745 1.81651C6.64956 1.10459 7.17434 0.385322 7.86424 -0.183486C8.74498 -0.913761 9.69911 -1.47523 10.8074 -1.82018C11.7542 -2.11376 12.6863 -2.07339 13.6331 -2.00367C13.9156 -1.98165 14.0551 -2.07706 14.0661 -2.35229C14.0771 -2.63119 14.0551 -2.91743 14.0771 -3.19633C14.1358 -4.03303 14.811 -4.35596 15.5083 -3.90092C16.0474 -3.55746 16.5087 -3.10494 16.8624 -2.57248C16.9285 -2.46605 17.0092 -2.36697 17.1817 -2.34495C17.3798 -2.55413 17.4936 -2.85872 17.7578 -3.03119C17.978 -3.17431 18.2055 -3.36881 18.4881 -3.21468C18.7413 -3.0789 18.8551 -2.84037 18.833 -2.54679V-2.35963C18.8367 -1.86789 18.833 -1.51193 19.5083 -1.29541C20.4734 -0.987155 21.3138 -0.341284 22.0991 0.337615C23.567 1.61468 24.4 3.2734 24.789 5.10826C25.0818 6.40406 25.2295 7.72841 25.2294 9.05688C25.1927 11.5523 25.3982 14.0477 25.8422 16.5064C26.0771 17.7872 26.3927 19.0312 26.8441 20.2385C26.9872 20.6165 27.1597 20.9835 27.3615 21.3321C27.8386 22.1468 27.4569 22.5138 26.7303 22.756C26.5468 22.822 26.334 22.8147 26.0918 22.8477C26.2789 23.2734 26.0624 23.4092 25.6697 23.4789C24.0918 23.7615 24.5688 23.7651 23.0459 23.3321C23.2661 23.7578 23.0459 23.9119 22.6753 23.967C21.6991 24.1138 20.7486 24.1431 19.9119 23.4826C19.6918 23.3101 19.567 23.0862 19.4422 22.8514C19.2844 22.5505 19.3542 22.3376 19.6697 22.1688C20.9321 21.4936 21.7615 20.4073 22.3964 19.1706C22.9468 18.1138 23.3358 17.0055 23.5009 15.8165C23.5633 15.3872 23.4899 14.9798 23.4863 14.5615C23.4679 13.0936 23.3762 11.622 23.5303 10.1578C23.6037 9.44587 23.7798 8.74495 23.7505 8.01835C23.7285 7.3578 23.5119 7.01284 22.8881 6.86606C21.8716 6.62385 20.8808 6.33395 19.9853 5.77248C19.7431 5.62202 19.4129 5.65505 19.156 5.75413C17.8569 6.25688 16.6753 5.79083 15.5083 5.30275C14.9175 5.05688 14.7707 5.03119 14.4624 5.55229C13.7615 6.75596 12.6092 7.45321 11.5413 8.25688C10.6459 8.93211 9.55232 9.26606 8.68626 10.011C7.88993 10.6972 7.59268 11.4972 7.77984 12.4954C7.92333 13.1862 8.24895 13.826 8.72296 14.3486C9.26608 14.9798 9.90828 15.5339 10.2642 16.3229C10.8514 17.6073 11.1633 18.9284 10.7266 20.2972C10.4331 21.2183 9.90828 22.044 9.22204 22.745C8.89911 23.0752 8.44039 23.0385 8.02571 23.0789C7.36149 23.145 6.68626 23.156 6.0147 23.1853C5.86057 23.189 5.66241 23.1927 5.60736 23.0239C5.55232 22.8587 5.63305 22.6936 5.76883 22.5615C6.40369 21.9596 6.52846 21.156 6.63122 20.3413C6.24756 20.8895 5.83729 21.4186 5.40186 21.9266C5.0092 22.3853 4.61654 22.844 4.06241 23.1303C3.03122 23.6587 1.98534 23.5816 0.932134 23.222C0.589335 23.1102 0.263392 22.9522 -0.0366733 22.7523C-0.513737 22.422 -0.546765 22.3009 -0.21282 21.7982C-0.840343 21.7248 -1.46053 21.644 -1.96695 21.2404C-2.25686 21.0092 -2.22383 20.822 -1.87154 20.7193C-0.61649 20.3486 0.216537 19.4826 0.924794 18.4367C1.76883 17.189 1.95232 15.7872 1.94131 14.3376C1.94131 13.3945 2.11012 12.4807 2.2569 11.556C2.41103 10.5872 2.56149 9.61835 2.80736 8.66789C3.06791 7.62936 3.3725 6.6055 3.90461 5.66606C4.04039 5.42018 4.12479 5.15229 4.24957 4.85872L4.25323 4.86239Z" fill="black"/>
<path fill-rule="evenodd" clip-rule="evenodd" d="M16.8624 18.5064C17.0752 18.5578 17.3028 18.6165 17.2294 18.9358C17.0826 18.9908 16.9761 18.9248 16.8697 18.8587C16.7413 18.7817 16.6128 18.7046 16.422 18.8147C16.4771 18.5028 16.6385 18.4477 16.833 18.4991C16.844 18.4991 16.8514 18.4991 16.8624 18.5064ZM20.2862 18.7193C20.411 18.8367 20.3303 18.9761 20.2349 19.0862C20.1872 19.1046 20.1431 19.1266 20.1028 19.1486C19.9743 19.2183 19.8679 19.2734 19.7358 19.2073C19.6257 19.0092 19.6367 18.8257 19.8459 18.7046C19.9853 18.6312 20.1615 18.6092 20.2862 18.7193ZM19.3982 19.2037C19.4422 18.9358 19.3541 18.7853 19.0569 18.822C18.8771 18.8477 18.7046 18.8917 18.7339 19.1229C18.7596 19.3651 18.9174 19.3505 19.0679 19.3358L19.2 19.3284C19.255 19.3321 19.3101 19.2881 19.3982 19.2037ZM17.6624 19.8532L17.7174 19.8422C17.7725 19.8349 17.8275 19.8239 17.8349 19.7321C17.2147 19.7028 16.7083 19.4128 16.2055 18.9798C16.463 19.5449 17.0426 19.8924 17.6624 19.8532ZM17.6697 19.1193C17.7578 19.3688 17.956 19.3688 18.1578 19.3028C18.2972 19.2514 18.2862 19.1046 18.2789 18.9835C18.2642 18.8 18.1395 18.7633 17.9853 18.7523C17.7615 18.7339 17.6844 18.855 17.6697 19.1193Z" fill="white"/>
<path fill-rule="evenodd" clip-rule="evenodd" d="M19.8863 18.1872C19.4095 18.3794 18.8892 18.4378 18.3817 18.356C17.9009 18.3266 17.4899 18.1908 17.0826 18.0257C16.6716 17.8716 16.0954 18.1064 15.8165 18.5138C15.5707 18.8807 15.5963 19.2477 15.945 19.6147C16.3413 20.0367 16.8367 20.3743 17.4129 20.3339C17.7431 20.3083 18.0734 20.2752 18.4037 20.2385C19.1633 20.1615 19.9193 20.0807 20.6936 20.1284C21.3358 20.1651 21.6514 19.5596 21.4716 18.9284C21.2624 18.2165 20.6422 17.9266 19.8826 18.1908L19.8863 18.1872ZM19.0569 18.822C19.3505 18.7853 19.4422 18.9321 19.3982 19.2037C19.3101 19.2881 19.2514 19.3321 19.2 19.3284C19.1633 19.3284 19.1156 19.3284 19.0679 19.3358C18.9211 19.3505 18.7596 19.3651 18.734 19.1229C18.7046 18.8917 18.8807 18.8477 19.0569 18.822ZM17.6624 19.8495L17.7174 19.8385C17.7725 19.8312 17.8275 19.8202 17.8349 19.7284C17.2147 19.6991 16.7083 19.4092 16.2055 18.9761C16.463 19.5412 17.0426 19.8887 17.6624 19.8495ZM20.2863 18.7193C20.411 18.8367 20.3303 18.9761 20.2349 19.0862C20.1872 19.1046 20.1431 19.1266 20.1028 19.1486C19.9743 19.2183 19.8679 19.2734 19.7358 19.2073C19.6257 19.0092 19.6367 18.8257 19.8459 18.7046C19.9853 18.6312 20.1615 18.6092 20.2863 18.7193ZM17.6697 19.1119C17.7578 19.3688 17.956 19.3688 18.1578 19.2954C18.2973 19.2477 18.2863 19.1009 18.2789 18.9798C18.2642 18.7963 18.1395 18.7596 17.9853 18.7486C17.7615 18.7303 17.6844 18.8514 17.6697 19.1156V19.1119ZM16.8624 18.5064C17.0752 18.5578 17.3028 18.6165 17.2294 18.9358C17.0826 18.9908 16.9762 18.9248 16.8697 18.8587C16.7413 18.7817 16.6129 18.7046 16.422 18.8147C16.4771 18.5028 16.6385 18.4477 16.833 18.4991C16.8441 18.4991 16.8514 18.4991 16.8624 18.5064Z" fill="black"/>
<path d="M18.5762 15.7651C18.378 15.589 18.2019 15.4202 18.3743 15.1853C18.5578 14.9394 18.734 15.189 18.9138 15.2367C19.0312 15.2697 19.1193 15.3982 19.2551 15.3578C19.4936 15.2917 19.7688 15.2661 19.8055 14.9394C19.8349 14.6275 19.5853 14.5541 19.3762 14.4587C19.2147 14.3853 18.8991 14.4954 18.9615 14.1651C19.0165 13.8605 19.2954 13.8826 19.534 13.9046C20.0263 13.9243 20.4151 14.3293 20.4147 14.822C20.4331 15.4165 20.1064 15.8679 19.5597 15.9229C19.2404 15.9596 18.8991 15.9963 18.5762 15.7651Z" fill="black"/>
<path d="M21.7835 13.0275C21.6294 12.6789 21.4202 12.4697 21.0569 12.4514C20.8367 12.4404 20.8 12.2642 20.7303 12.0917C20.8037 12.0367 20.8588 11.956 20.9248 11.9523C21.6991 11.8899 22.4808 11.8862 23.2551 11.9486C23.4753 11.9633 23.5964 12.2422 23.3725 12.3303C23.0055 12.4771 22.9138 12.8147 22.6936 13.0569C22.3927 13.3872 22.1358 13.3908 21.7835 13.0275ZM14.7743 11.9413C15.2221 11.967 15.6221 11.978 16.0221 12.0147C16.1542 12.0257 16.3156 12.0807 16.3156 12.2605C16.3156 12.4661 16.1468 12.4514 16.011 12.4477C15.7799 12.4477 15.6551 12.5468 15.5523 12.7633C15.4276 13.0349 15.2991 13.3248 14.8918 13.3064C14.5065 13.2881 14.3377 13.0422 14.2276 12.7486C14.1468 12.5394 14.0441 12.4404 13.8239 12.4477C13.6991 12.4514 13.5633 12.4404 13.5487 12.2679C13.534 12.0844 13.6588 12.0477 13.8055 12.0037C14.1213 11.9196 14.4504 11.8984 14.7743 11.9413Z" fill="black"/>
<path d="M23.2294 9.19633C23.3248 9.46422 23.4312 9.69174 23.4863 9.93027C23.5303 10.1101 23.5487 10.3119 23.3028 10.3927C23.0239 10.4881 22.9872 10.2679 22.9138 10.1064C22.8355 9.93717 22.7681 9.76312 22.712 9.58532C22.6569 9.4055 22.5542 9.32844 22.367 9.33578C22.1835 9.33945 22.0734 9.44587 22.0257 9.6C21.9633 9.79449 21.9156 9.99266 21.8789 10.1908C21.8422 10.356 21.7248 10.367 21.5927 10.3596C21.4606 10.356 21.3982 10.2862 21.3762 10.1578C21.2587 9.42018 21.6 8.75596 22.3266 8.64587C22.7743 8.57247 23.0239 8.81101 23.2257 9.19633H23.2294ZM14.2606 9.3211C14.8147 8.5688 15.3395 8.42202 15.8753 8.90642C16.2092 9.21101 16.1945 9.6844 16.2679 10.1027C16.2863 10.2128 16.1945 10.3119 16.0734 10.3339C15.945 10.3596 15.8165 10.2899 15.7652 10.1725C15.7028 10.0257 15.6844 9.86789 15.6331 9.72477C15.5707 9.54862 15.5156 9.3578 15.2771 9.33945C15.0422 9.3211 14.8881 9.44954 14.7927 9.63302C14.6606 9.89724 14.6165 10.367 14.2165 10.1725C13.8349 9.98899 14.1468 9.63302 14.2606 9.3211Z" fill="black"/>
</g>
</g>
</g>
<defs>
<clipPath id="clip0_4_306">
<rect width="32" height="32" fill="white"/>
</clipPath>
<clipPath id="clip1_4_306">
<rect width="32" height="32" fill="white"/>
</clipPath>
</defs>
</svg>
